<svg xmlns="http://www.w3.org/2000/svg" width="160" height="32" fill="none" viewBox="0 0 160 32">
  <path fill="#863bff" d="M22.268 30.54c-.442.563-1.347.25-1.347-.466V23.206a1.507 1.507 0 0 0-1.508-1.508H11.828c-.614 0-.97-.693-.614-1.192l4.987-6.98c.713-.999 0-2.386-1.228-2.386H5.793c-.613 0-.97-.694-.613-1.192L11.647.315c.143-.198.37-.316.613-.316h19.263c.613 0 .97.693.613 1.192l-4.986 6.98c-.713.999 0 2.386 1.228 2.386h7.584c.629 0 .982.725.594 1.22L22.268 30.539Z"/>
  <text x="36" y="24" font-family="system-ui,-apple-system,sans-serif" font-size="20" font-weight="700" fill="#fff" letter-spacing="-0.02em">VORTEX</text>
</svg>
